# xmcd
#
# Track frame offsets: 
#        150
#        18407
#        44660
#        62913
#        66664
#        90748
#
# Disc length: 1403 seconds
#
# Revision: 0
# Processed by: cddbd v1.5PL3 Copyright (c) Steve Scherf et al.
# Submitted via: ExactAudioCopy v0.95a3
#
DISCID=57057906
DTITLE=Buck Shamus - BS (v1.0)
DYEAR=2001
DGENRE=Blues
TTITLE0=Come Undone
TTITLE1=I'm Not Saying
TTITLE2=Rooster Rugburn
TTITLE3=Good Morning Sunshine
TTITLE4=Hangover
TTITLE5=Down
EXTD=
EXTT0=
EXTT1=
EXTT2=
EXTT3=
EXTT4=
EXTT5=
PLAYORDER=
